<?xml version="1.0" standalone="no"?>
<!DOCTYPE svg PUBLIC "-//W3C//DTD SVG 20010904//EN"
 "http://www.w3.org/TR/2001/REC-SVG-20010904/DTD/svg10.dtd">
<svg version="1.0" xmlns="http://www.w3.org/2000/svg"
 width="500.000000pt" height="500.000000pt" viewBox="0 0 500.000000 500.000000"
 preserveAspectRatio="xMidYMid meet">

<g transform="translate(0.000000,500.000000) scale(0.100000,-0.100000)"
fill="#000000" stroke="none">
<path d="M2762 4969 c-210 -15 -439 -63 -625 -131 -51 -18 -82 -21 -300 -23
-179 -1 -265 -6 -332 -19 -49 -9 -90 -18 -92 -20 -2 -1 14 -21 34 -43 36 -39
95 -128 108 -164 4 -12 -21 -36 -92 -89 -94 -70 -393 -359 -393 -380 0 -6 16
-3 37 6 151 66 270 113 412 160 90 30 165 53 166 51 1 -1 24 -40 51 -87 50
-88 190 -278 268 -365 l44 -49 10 39 c6 22 18 68 27 103 25 99 71 215 130 331
85 165 73 157 250 175 203 21 426 36 565 36 l115 1 -58 30 c-83 43 -254 111
-389 155 -65 21 -118 42 -118 46 0 27 245 171 400 236 21 9 14 11 -40 10 -36
-1 -116 -5 -178 -9z"/>
<path d="M4000 4454 c0 -65 -20 -177 -34 -191 -3 -3 -41 10 -83 30 -109 51
-271 110 -383 141 -92 25 -321 68 -328 62 -2 -2 33 -29 77 -60 126 -88 305
-242 434 -373 64 -66 117 -124 117 -130 0 -28 -203 -301 -324 -437 l-71 -79
35 6 c19 3 96 17 170 30 182 34 366 57 454 57 l73 0 85 -127 c146 -218 261
-409 332 -550 14 -29 29 -53 33 -53 3 0 3 82 0 183 -5 155 -21 296 -53 480 -6
34 -5 37 17 37 45 0 174 -41 237 -75 34 -19 62 -32 62 -28 0 15 -88 166 -151
258 -77 113 -161 209 -264 305 -52 48 -83 88 -122 157 -66 119 -140 228 -219
324 -95 114 -94 114 -94 33z"/>
<path d="M884 4428 c-336 -286 -610 -683 -743 -1073 -43 -129 -95 -329 -89
-347 3 -7 23 23 46 65 47 86 136 219 190 285 l35 43 39 -73 c58 -108 139 -229
149 -222 5 3 9 44 9 92 0 106 13 219 41 370 l22 112 64 60 c74 69 261 226 346
289 31 24 57 46 57 48 0 8 -157 -7 -240 -23 -41 -8 -81 -14 -87 -14 -25 0 65
189 162 340 55 87 57 90 52 90 -2 0 -26 -19 -53 -42z"/>
<path d="M2032 3638 c-51 -246 -91 -537 -92 -664 0 -17 -17 -27 -102 -59 -245
-90 -627 -261 -612 -274 20 -17 369 -155 584 -231 l135 -47 8 -64 c32 -259 63
-467 92 -604 53 -248 40 -238 119 -94 57 103 312 519 351 572 10 14 32 10 201
-34 104 -27 310 -76 458 -110 149 -33 273 -62 278 -65 29 -18 -9 26 -120 140
-123 127 -310 339 -421 480 -51 64 -54 69 -40 92 28 45 265 370 397 543 73 95
131 175 129 177 -10 10 -525 -126 -769 -203 -82 -26 -150 -45 -152 -42 -19 20
-242 369 -312 488 -49 83 -92 151 -95 151 -3 0 -20 -69 -37 -152z"/>
<path d="M494 3045 c-71 -103 -170 -304 -228 -466 -27 -75 -28 -76 -82 -98
-79 -33 -174 -97 -174 -118 0 -30 55 -134 109 -208 l51 -70 0 -131 c0 -157 26
-324 71 -458 16 -50 34 -95 39 -100 5 -5 13 10 20 35 20 82 62 194 102 274 57
113 53 110 102 74 104 -78 385 -259 402 -259 2 0 -14 35 -35 78 -59 117 -116
259 -161 400 l-40 125 37 46 c67 82 275 291 378 379 55 47 105 90 110 95 19
18 -381 -11 -540 -38 -53 -10 -81 -11 -86 -4 -7 12 -38 258 -47 384 l-7 90
-21 -30z"/>
<path d="M4512 2537 c-45 -113 -121 -288 -168 -391 -86 -182 -88 -186 -123
-193 -48 -11 -532 -10 -650 0 l-94 9 21 -29 c48 -68 260 -288 359 -373 59 -52
109 -99 111 -106 5 -18 -197 -336 -295 -463 -18 -24 -31 -46 -29 -48 7 -7 181
47 288 88 109 43 210 95 319 165 l67 42 55 -44 c31 -24 75 -68 98 -99 23 -30
43 -55 46 -55 2 0 19 33 38 73 44 93 79 216 101 353 16 101 21 115 69 189 117
179 211 406 259 626 5 21 -10 10 -77 -55 -56 -57 -105 -94 -155 -120 -41 -21
-75 -36 -77 -34 -1 1 -10 89 -19 193 -18 220 -45 444 -55 463 -4 8 -42 -73
-89 -191z"/>
<path d="M931 1438 c74 -188 119 -290 185 -416 l74 -142 -27 -11 c-98 -37
-202 -54 -340 -54 -160 0 -157 3 -59 -71 131 -99 376 -199 595 -244 l105 -21
78 -84 c133 -142 262 -234 424 -301 47 -19 88 -33 90 -31 2 2 -5 25 -17 52
-41 92 -75 315 -48 315 59 0 461 23 491 28 l40 7 -129 58 c-70 31 -190 91
-265 133 l-138 75 0 49 c0 61 32 312 66 523 14 87 24 160 22 162 -2 2 -41 -30
-88 -71 -157 -138 -454 -354 -486 -354 -16 0 -271 192 -446 337 -76 62 -140
113 -143 113 -2 0 5 -24 16 -52z"/>
<path d="M3603 895 c-45 -68 -224 -283 -315 -377 l-94 -98 -185 0 c-169 0
-382 12 -436 25 -13 3 -23 1 -23 -3 0 -15 131 -121 238 -192 l102 -68 -112
-58 c-62 -32 -151 -70 -198 -85 l-85 -28 60 -1 c81 0 270 18 380 36 400 66
806 251 1135 515 89 72 150 129 138 129 -3 0 -56 -24 -119 -54 -63 -30 -155
-68 -206 -85 -98 -32 -253 -74 -258 -69 -2 2 1 26 7 53 13 61 14 341 2 372 -9
21 -10 21 -31 -12z"/>
</g>
</svg>
